<svg version="1.1" id="Layer_1" xmlns="http://www.w3.org/2000/svg" xmlns:xlink="http://www.w3.org/1999/xlink" x="0px" y="0px"
	 width="100%" viewBox="0 0 500 500" enable-background="new 0 0 500 500" xml:space="preserve">
<path fill="#000000" opacity="1.000000" stroke="none" 
	d="
M322.000000,501.000000 
	C214.666687,501.000000 107.833382,501.000000 1.000057,501.000000 
	C1.000038,334.333405 1.000038,167.666794 1.000019,1.000147 
	C167.666565,1.000098 334.333130,1.000098 500.999756,1.000049 
	C500.999847,167.666519 500.999847,334.333038 500.999939,500.999786 
	C441.500000,501.000000 382.000000,501.000000 322.000000,501.000000 
M313.005524,237.075775 
	C312.668365,235.834183 312.441498,234.549606 311.976837,233.357727 
	C307.762360,222.547653 300.553070,214.912033 289.467529,211.137573 
	C308.289368,211.091904 327.111786,211.111237 345.932709,210.956406 
	C350.849731,210.915955 355.885803,210.912170 360.654419,209.894531 
	C376.652374,206.480621 388.452240,194.607437 388.903137,177.850220 
	C389.346558,161.369720 389.135254,144.865967 388.889984,128.377197 
	C388.838684,124.928596 387.822815,121.320770 386.500641,118.093979 
	C379.945526,102.096283 366.605438,96.188126 350.627747,96.114929 
	C288.157776,95.828743 225.685699,95.965416 163.214523,96.042213 
	C155.969925,96.051117 148.625809,96.022629 141.502075,97.131195 
	C125.001961,99.698853 112.810043,111.133682 112.359940,127.037674 
	C111.295403,164.652069 112.111450,202.319687 112.012657,240.897873 
	C112.012657,295.443970 112.012657,349.990082 112.012657,405.728394 
	C113.298782,404.081085 113.699409,403.567932 114.713852,402.796967 
	C135.771286,381.737549 156.922729,360.770874 177.840256,339.573395 
	C186.297821,331.002625 196.315628,325.884827 208.969330,323.971313 
	C232.998978,323.982178 257.028656,324.008484 281.058167,323.963043 
	C282.408295,323.960480 283.757324,323.367188 285.905029,323.008636 
	C299.374115,321.324493 312.176147,307.657410 313.778137,294.648315 
	C313.851227,276.400208 313.934998,258.152069 313.955688,239.903915 
	C313.956482,239.218384 313.344666,238.532150 313.005524,237.075775 
z"/>
<path fill="#00C9FF" opacity="1.000000" stroke="none" 
	d="
M112.167114,239.965775 
	C112.111450,202.319687 111.295403,164.652069 112.359940,127.037674 
	C112.810043,111.133682 125.001961,99.698853 141.502075,97.131195 
	C148.625809,96.022629 155.969925,96.051117 163.214523,96.042213 
	C225.685699,95.965416 288.157776,95.828743 350.627747,96.114929 
	C366.605438,96.188126 379.945526,102.096283 386.500641,118.093979 
	C387.822815,121.320770 388.838684,124.928596 388.889984,128.377197 
	C389.135254,144.865967 389.346558,161.369720 388.903137,177.850220 
	C388.452240,194.607437 376.652374,206.480621 360.654419,209.894531 
	C355.885803,210.912170 350.849731,210.915955 345.932709,210.956406 
	C327.111786,211.111237 308.289368,211.091904 288.866333,211.395020 
	C284.179138,211.132584 280.094299,210.171555 276.006927,210.160828 
	C233.762360,210.049973 191.515869,209.879974 149.273209,210.184647 
	C129.033813,210.330627 115.527977,222.948608 112.696411,239.880432 
	C112.521210,239.916031 112.167122,239.965775 112.167114,239.965775 
M336.606598,152.099014 
	C334.605194,148.369324 331.089203,148.476837 327.572235,148.477600 
	C276.437347,148.488556 225.302444,148.482208 174.167542,148.497055 
	C172.509171,148.497528 170.821976,148.518723 169.198776,148.811066 
	C166.185562,149.353790 163.729706,150.827866 164.213730,154.324402 
	C164.670670,157.625488 166.157150,160.033401 170.280533,160.028198 
	C223.414017,159.961273 276.547607,159.991074 329.681183,160.003723 
	C334.487640,160.004868 337.058502,157.794220 336.606598,152.099014 
z"/>
<path fill="#5271FF" opacity="1.000000" stroke="none" 
	d="
M112.871605,239.844818 
	C115.527977,222.948608 129.033813,210.330627 149.273209,210.184647 
	C191.515869,209.879974 233.762360,210.049973 276.006927,210.160828 
	C280.094299,210.171555 284.179138,211.132584 288.652710,211.769684 
	C300.553070,214.912033 307.762360,222.547653 311.976837,233.357727 
	C312.441498,234.549606 312.668365,235.834183 313.000366,237.940918 
	C313.008453,257.579163 313.021729,276.352234 313.034973,295.125336 
	C312.176147,307.657410 299.374115,321.324493 285.031189,323.007996 
	C260.730682,323.005707 237.304001,322.984406 213.877472,323.038269 
	C211.934296,323.042755 209.992294,323.555115 208.049744,323.831512 
	C196.315628,325.884827 186.297821,331.002625 177.840256,339.573395 
	C156.922729,360.770874 135.771286,381.737549 114.144379,402.597626 
	C113.382835,400.432922 113.026962,398.467834 113.023659,396.502167 
	C112.984734,373.385193 113.014801,350.268127 112.994583,327.151093 
	C112.969124,298.049011 112.913948,268.946899 112.871605,239.844818 
M195.500031,262.160065 
	C187.338257,262.163696 179.174667,262.065155 171.015381,262.209412 
	C166.147369,262.295502 163.044281,265.452454 164.124207,269.136444 
	C165.085052,272.414246 167.172089,274.098877 171.057114,274.079803 
	C201.371567,273.930939 231.687088,273.999939 262.002289,273.996796 
	C262.999847,273.996674 264.383087,274.353607 264.924957,273.842560 
	C266.788391,272.085175 269.161041,270.258423 269.841614,268.005585 
	C270.755981,264.978699 268.458710,263.171631 265.326080,262.816345 
	C263.536316,262.613312 261.750366,262.192596 259.962036,262.188843 
	C238.808105,262.144379 217.654068,262.160187 195.500031,262.160065 
z"/>
<path fill="#358EFF" opacity="1.000000" stroke="none" 
	d="
M112.696411,239.880432 
	C112.913948,268.946899 112.969124,298.049011 112.994583,327.151093 
	C113.014801,350.268127 112.984734,373.385193 113.023659,396.502167 
	C113.026962,398.467834 113.382835,400.432922 113.837479,402.726532 
	C113.699409,403.567932 113.298782,404.081085 112.012657,405.728394 
	C112.012657,349.990082 112.012657,295.443970 112.089890,240.431824 
	C112.167122,239.965775 112.521210,239.916031 112.696411,239.880432 
z"/>
<path fill="#368DFF" opacity="1.000000" stroke="none" 
	d="
M208.509537,323.901428 
	C209.992294,323.555115 211.934296,323.042755 213.877472,323.038269 
	C237.304001,322.984406 260.730682,323.005707 284.632080,323.028076 
	C283.757324,323.367188 282.408295,323.960480 281.058167,323.963043 
	C257.028656,324.008484 232.998978,323.982178 208.509537,323.901428 
z"/>
<path fill="#4084FF" opacity="1.000000" stroke="none" 
	d="
M313.406555,294.886841 
	C313.021729,276.352234 313.008453,257.579163 313.006775,238.326172 
	C313.344666,238.532150 313.956482,239.218384 313.955688,239.903915 
	C313.934998,258.152069 313.851227,276.400208 313.406555,294.886841 
z"/>
<path fill="#1B0C27" opacity="1.000000" stroke="none" 
	d="
M336.770569,152.465927 
	C337.058502,157.794220 334.487640,160.004868 329.681183,160.003723 
	C276.547607,159.991074 223.414017,159.961273 170.280533,160.028198 
	C166.157150,160.033401 164.670670,157.625488 164.213730,154.324402 
	C163.729706,150.827866 166.185562,149.353790 169.198776,148.811066 
	C170.821976,148.518723 172.509171,148.497528 174.167542,148.497055 
	C225.302444,148.482208 276.437347,148.488556 327.572235,148.477600 
	C331.089203,148.476837 334.605194,148.369324 336.770569,152.465927 
z"/>
<path fill="#1B0C27" opacity="1.000000" stroke="none" 
	d="
M196.000031,262.160095 
	C217.654068,262.160187 238.808105,262.144379 259.962036,262.188843 
	C261.750366,262.192596 263.536316,262.613312 265.326080,262.816345 
	C268.458710,263.171631 270.755981,264.978699 269.841614,268.005585 
	C269.161041,270.258423 266.788391,272.085175 264.924957,273.842560 
	C264.383087,274.353607 262.999847,273.996674 262.002289,273.996796 
	C231.687088,273.999939 201.371567,273.930939 171.057114,274.079803 
	C167.172089,274.098877 165.085052,272.414246 164.124207,269.136444 
	C163.044281,265.452454 166.147369,262.295502 171.015381,262.209412 
	C179.174667,262.065155 187.338257,262.163696 196.000031,262.160095 
z"/>
</svg>